<mxfile host="app.diagrams.net" modified="2021-02-07T11:27:37.327Z" agent="5.0 (Windows NT 10.0; Win64; x64) AppleWebKit/537.36 (KHTML, like Gecko) Chrome/85.0.4183.121 Safari/537.36" etag="5VVNsOf4vae2qfCxAlsg" version="14.2.9" type="github">
  <diagram id="Bs14mHbUVLDeh3UIw2xY" name="Page-1">
    <mxGraphModel dx="1662" dy="762" grid="1" gridSize="10" guides="1" tooltips="1" connect="1" arrows="1" fold="1" page="1" pageScale="1" pageWidth="827" pageHeight="1169" math="0" shadow="0">
      <root>
        <mxCell id="0" />
        <mxCell id="1" parent="0" />
        <mxCell id="iuKIF0aHQAjC3-pJRR-S-3" style="edgeStyle=orthogonalEdgeStyle;rounded=0;orthogonalLoop=1;jettySize=auto;html=1;" edge="1" parent="1" source="iuKIF0aHQAjC3-pJRR-S-1" target="iuKIF0aHQAjC3-pJRR-S-2">
          <mxGeometry relative="1" as="geometry" />
        </mxCell>
        <mxCell id="iuKIF0aHQAjC3-pJRR-S-1" value="开始" style="rounded=1;whiteSpace=wrap;html=1;" vertex="1" parent="1">
          <mxGeometry x="354" y="110" width="120" height="60" as="geometry" />
        </mxCell>
        <mxCell id="iuKIF0aHQAjC3-pJRR-S-2" value="处理" style="whiteSpace=wrap;html=1;aspect=fixed;" vertex="1" parent="1">
          <mxGeometry x="374" y="320" width="80" height="80" as="geometry" />
        </mxCell>
      </root>
    </mxGraphModel>
  </diagram>
</mxfile>
